<svg width="82" height="17" viewBox="0 0 82 17" fill="none" xmlns="http://www.w3.org/2000/svg">
<path d="M0.56 6.4C0.56 5.30133 0.805333 4.32 1.296 3.456C1.79733 2.58133 2.47467 1.904 3.328 1.424C4.192 0.933333 5.15733 0.688 6.224 0.688C7.472 0.688 8.56533 1.008 9.504 1.648C10.4427 2.288 11.0987 3.17333 11.472 4.304H8.896C8.64 3.77067 8.27733 3.37067 7.808 3.104C7.34933 2.83733 6.816 2.704 6.208 2.704C5.55733 2.704 4.976 2.85867 4.464 3.168C3.96267 3.46667 3.568 3.89333 3.28 4.448C3.00267 5.00267 2.864 5.65333 2.864 6.4C2.864 7.136 3.00267 7.78667 3.28 8.352C3.568 8.90667 3.96267 9.33867 4.464 9.648C4.976 9.94667 5.55733 10.096 6.208 10.096C6.816 10.096 7.34933 9.96267 7.808 9.696C8.27733 9.41867 8.64 9.01333 8.896 8.48H11.472C11.0987 9.62133 10.4427 10.512 9.504 11.152C8.576 11.7813 7.48267 12.096 6.224 12.096C5.15733 12.096 4.192 11.856 3.328 11.376C2.47467 10.8853 1.79733 10.208 1.296 9.344C0.805333 8.48 0.56 7.49867 0.56 6.4ZM17.3213 12.144C16.4679 12.144 15.6999 11.9573 15.0173 11.584C14.3346 11.2 13.7959 10.6613 13.4013 9.968C13.0173 9.27467 12.8253 8.47467 12.8253 7.568C12.8253 6.66133 13.0226 5.86133 13.4173 5.168C13.8226 4.47467 14.3719 3.94133 15.0653 3.568C15.7586 3.184 16.5319 2.992 17.3853 2.992C18.2386 2.992 19.0119 3.184 19.7053 3.568C20.3986 3.94133 20.9426 4.47467 21.3373 5.168C21.7426 5.86133 21.9453 6.66133 21.9453 7.568C21.9453 8.47467 21.7373 9.27467 21.3212 9.968C20.9159 10.6613 20.3613 11.2 19.6573 11.584C18.9639 11.9573 18.1853 12.144 17.3213 12.144ZM17.3213 10.192C17.7266 10.192 18.1053 10.096 18.4573 9.904C18.8199 9.70133 19.1079 9.40267 19.3213 9.008C19.5346 8.61333 19.6413 8.13333 19.6413 7.568C19.6413 6.72533 19.4173 6.08 18.9693 5.632C18.5319 5.17333 17.9933 4.944 17.3533 4.944C16.7133 4.944 16.1746 5.17333 15.7373 5.632C15.3106 6.08 15.0973 6.72533 15.0973 7.568C15.0973 8.41067 15.3053 9.06133 15.7213 9.52C16.1479 9.968 16.6813 10.192 17.3213 10.192ZM34.5964 3.008C35.6844 3.008 36.559 3.344 37.2204 4.016C37.8924 4.67733 38.2284 5.60533 38.2284 6.8V12H35.9884V7.104C35.9884 6.41067 35.8124 5.88267 35.4604 5.52C35.1084 5.14667 34.6284 4.96 34.0204 4.96C33.4124 4.96 32.927 5.14667 32.5644 5.52C32.2124 5.88267 32.0364 6.41067 32.0364 7.104V12H29.7964V7.104C29.7964 6.41067 29.6204 5.88267 29.2684 5.52C28.9164 5.14667 28.4364 4.96 27.8284 4.96C27.2097 4.96 26.719 5.14667 26.3564 5.52C26.0044 5.88267 25.8284 6.41067 25.8284 7.104V12H23.5884V3.136H25.8284V4.208C26.1164 3.83467 26.4844 3.54133 26.9324 3.328C27.391 3.11467 27.8924 3.008 28.4364 3.008C29.1297 3.008 29.7484 3.15733 30.2924 3.456C30.8364 3.744 31.2577 4.16 31.5564 4.704C31.8444 4.192 32.2604 3.78133 32.8044 3.472C33.359 3.16267 33.9564 3.008 34.5964 3.008ZM42.594 4.416C42.882 4.01067 43.2767 3.67467 43.778 3.408C44.29 3.13067 44.8713 2.992 45.522 2.992C46.2793 2.992 46.962 3.17867 47.57 3.552C48.1887 3.92533 48.674 4.45867 49.026 5.152C49.3887 5.83467 49.57 6.62933 49.57 7.536C49.57 8.44267 49.3887 9.248 49.026 9.952C48.674 10.6453 48.1887 11.184 47.57 11.568C46.962 11.952 46.2793 12.144 45.522 12.144C44.8713 12.144 44.2953 12.0107 43.794 11.744C43.3033 11.4773 42.9033 11.1413 42.594 10.736V16.224H40.354V3.136H42.594V4.416ZM47.282 7.536C47.282 7.00267 47.17 6.544 46.946 6.16C46.7327 5.76533 46.4447 5.46667 46.082 5.264C45.73 5.06133 45.346 4.96 44.93 4.96C44.5247 4.96 44.1407 5.06667 43.778 5.28C43.426 5.48267 43.138 5.78133 42.914 6.176C42.7007 6.57067 42.594 7.03467 42.594 7.568C42.594 8.10133 42.7007 8.56533 42.914 8.96C43.138 9.35467 43.426 9.65867 43.778 9.872C44.1407 10.0747 44.5247 10.176 44.93 10.176C45.346 10.176 45.73 10.0693 46.082 9.856C46.4447 9.64267 46.7327 9.33867 46.946 8.944C47.17 8.54933 47.282 8.08 47.282 7.536ZM50.6217 7.536C50.6217 6.64 50.7977 5.84533 51.1497 5.152C51.5124 4.45867 51.9978 3.92533 52.6058 3.552C53.2244 3.17867 53.9124 2.992 54.6698 2.992C55.3311 2.992 55.9071 3.12533 56.3978 3.392C56.8991 3.65867 57.2991 3.99467 57.5978 4.4V3.136H59.8538V12H57.5978V10.704C57.3098 11.12 56.9098 11.4667 56.3978 11.744C55.8964 12.0107 55.3151 12.144 54.6538 12.144C53.9071 12.144 53.2244 11.952 52.6058 11.568C51.9978 11.184 51.5124 10.6453 51.1497 9.952C50.7977 9.248 50.6217 8.44267 50.6217 7.536ZM57.5978 7.568C57.5978 7.024 57.4911 6.56 57.2778 6.176C57.0644 5.78133 56.7764 5.48267 56.4138 5.28C56.0511 5.06667 55.6618 4.96 55.2458 4.96C54.8298 4.96 54.4458 5.06133 54.0938 5.264C53.7418 5.46667 53.4538 5.76533 53.2298 6.16C53.0164 6.544 52.9098 7.00267 52.9098 7.536C52.9098 8.06933 53.0164 8.53867 53.2298 8.944C53.4538 9.33867 53.7418 9.64267 54.0938 9.856C54.4564 10.0693 54.8404 10.176 55.2458 10.176C55.6618 10.176 56.0511 10.0747 56.4138 9.872C56.7764 9.65867 57.0644 9.36 57.2778 8.976C57.4911 8.58133 57.5978 8.112 57.5978 7.568ZM66.9535 3.008C68.0095 3.008 68.8628 3.344 69.5135 4.016C70.1642 4.67733 70.4895 5.60533 70.4895 6.8V12H68.2495V7.104C68.2495 6.4 68.0735 5.86133 67.7215 5.488C67.3695 5.104 66.8895 4.912 66.2815 4.912C65.6628 4.912 65.1722 5.104 64.8095 5.488C64.4575 5.86133 64.2815 6.4 64.2815 7.104V12H62.0415V3.136H64.2815V4.24C64.5802 3.856 64.9588 3.55733 65.4175 3.344C65.8868 3.12 66.3988 3.008 66.9535 3.008ZM81.0996 3.136L75.6116 16.192H73.2276L75.1476 11.776L71.5956 3.136H74.1076L76.3956 9.328L78.7156 3.136H81.0996Z" fill="white"/>
</svg>
